<svg class="diagram-root" style="background: #f5f6f6" xmlns="http://www.w3.org/2000/svg" xmlns:xlink="http://www.w3.org/1999/xlink"><style>.diagram-root { font-family: "Helvetica Neue", sans-serif; font-size: 12px; } .t { overflow: visible; } .t-bg { y: 40; fill: #fff;   } .th { fill: #005aa0;   } .tht { fill: #fff; font-size: 14px;  } .tf { fill: #323c46; overflow: visible; } .tf.pk { fill: #005aa0; font-weight: bold; } .tf.fk { font-weight: bold; } .ty { fill: #adb1b5; font-weight: normal; text-anchor: end; } .r { fill: transparent; stroke: #c3c3c3; stroke-width: 1; } .l { stroke: 1; } .i { fill: #c2c7ce; stroke: #c2c7ce; } .i.ix { fill: #afb3b6; stroke: #000; } .fa { fill: transparent; overflow: visible; } .fa .bg.hover { fill: #f7f7f7; } .c { cy: 12; r: 4; stroke: #d2d2dc; fill: #d2d2dc; } .hr { fill: transparent; stroke: #323c46; stroke-opacity: 0.035; stroke-width: 13; } .dc { stroke: #fa5a3c; fill: #fa5a3c; } .x { stroke: white; stroke-width: 1; } .hl .th { fill: #1b9bff; } .hl .tht {  } .fhl .bg { fill: #e7f4ff; } .fhls .bg {  } .r.hl { stroke: #1b9bff; } .dim { opacity: 0.25; }</style><g class="drawing-wrapper" transform="translate(-138, 20) scale(1,1)"><g class="rs"><path d="M 495 309.5 m -1, 0 a 1,1 0 1,0 2,0 a 1,1 0 1,0 -2,0 M 495 309.5 m -0.5, 0 a 0.5,0.5 0 1,0 1,0 a 0.5,0.5 0 1,0 -1,0  M495 309.5 L495 309.5 483 309.5 M 495 315.5 m -1, 0 a 1,1 0 1,0 2,0 a 1,1 0 1,0 -2,0 M 495 315.5 m -0.5, 0 a 0.5,0.5 0 1,0 1,0 a 0.5,0.5 0 1,0 -1,0  M495 315.5 L495 315.5 488 309.5 495 303.5 M 495 303.5 m -1, 0 a 1,1 0 1,0 2,0 a 1,1 0 1,0 -2,0 M 495 303.5 m -0.5, 0 a 0.5,0.5 0 1,0 1,0 a 0.5,0.5 0 1,0 -1,0  M483 309.5 Q 444.74 309.5, 406.48 188.25 T 329.96 67 M 317.96 67 m -1, 0 a 1,1 0 1,0 2,0 a 1,1 0 1,0 -2,0 M 317.96 67 m -0.5, 0 a 0.5,0.5 0 1,0 1,0 a 0.5,0.5 0 1,0 -1,0  M317.96 67 L317.96 67 329.96 67 M323.96 73 L323.96 73 323.96 61" id="h1909686848" class="r"></path><path d="M 495 384.5 m -1, 0 a 1,1 0 1,0 2,0 a 1,1 0 1,0 -2,0 M 495 384.5 m -0.5, 0 a 0.5,0.5 0 1,0 1,0 a 0.5,0.5 0 1,0 -1,0  M495 384.5 L495 384.5 483 384.5 M 495 390.5 m -1, 0 a 1,1 0 1,0 2,0 a 1,1 0 1,0 -2,0 M 495 390.5 m -0.5, 0 a 0.5,0.5 0 1,0 1,0 a 0.5,0.5 0 1,0 -1,0  M495 390.5 L495 390.5 488 384.5 495 378.5 M 495 378.5 m -1, 0 a 1,1 0 1,0 2,0 a 1,1 0 1,0 -2,0 M 495 378.5 m -0.5, 0 a 0.5,0.5 0 1,0 1,0 a 0.5,0.5 0 1,0 -1,0  M483 384.5 Q 447.43 384.5, 411.86 437 T 340.71 489.5 M 328.71 489.5 m -1, 0 a 1,1 0 1,0 2,0 a 1,1 0 1,0 -2,0 M 328.71 489.5 m -0.5, 0 a 0.5,0.5 0 1,0 1,0 a 0.5,0.5 0 1,0 -1,0  M328.71 489.5 L328.71 489.5 340.71 489.5 M334.71 495.5 L334.71 495.5 334.71 483.5" id="h3147641098" class="r"></path></g><g class="hrs"></g><g class="ts"><svg width="156.71" height="150" x="161.25" y="10" id="h2218888542" class="t"><rect height="40" width="156.71" class="th"></rect><text x="13" y="25" class="tht">event</text><rect height="110" width="156.71" class="t-bg" y="40"></rect><text x="13" y="61" class="tf pk">id<tspan x="143.71" class="ty">serial</tspan></text><path d="M7,14A2,2 0 0,1 5,12A2,2 0 0,1 7,10A2,2 0 0,1 9,12A2,2 0 0,1 7,14M12.65,10C11.83,7.67 9.61,6 7, 6A6, 6 0 0, 0 1, 12A6, 6 0 0, 0 7, 18C9.61, 18 11.83, 16.33 12.65, 14H17V18H21V14H23V10H12.65Z" class="i pk" transform="translate(95.03421875000001, 48) scale(0.65)"></path><text x="13" y="86" class="tf">sport<tspan x="143.71" class="ty">varchar(50)</tspan></text><text x="13" y="111" class="tf">discipline<tspan x="143.71" class="ty">varchar(50)</tspan></text><text x="13" y="136" class="tf">name<tspan x="143.71" class="ty">varchar(50)</tspan></text></svg><svg width="168.71" height="125" x="160" y="432.5" id="h3233356384" class="t"><rect height="40" width="168.71" class="th"></rect><text x="13" y="25" class="tht">country</text><rect height="85" width="168.71" class="t-bg" y="40"></rect><text x="13" y="61" class="tf pk">ioc_code<tspan x="155.71" class="ty">varchar(3)</tspan></text><path d="M7,14A2,2 0 0,1 5,12A2,2 0 0,1 7,10A2,2 0 0,1 9,12A2,2 0 0,1 7,14M12.65,10C11.83,7.67 9.61,6 7, 6A6, 6 0 0, 0 1, 12A6, 6 0 0, 0 7, 18C9.61, 18 11.83, 16.33 12.65, 14H17V18H21V14H23V10H12.65Z" class="i pk" transform="translate(81.03031250000001, 48) scale(0.65)"></path><text x="13" y="86" class="tf">iso_code<tspan x="155.71" class="ty">varchar(2)</tspan></text><text x="13" y="111" class="tf">name<tspan x="155.71" class="ty">varchar(32)</tspan></text></svg><svg width="226.1" height="275" x="495" y="152.5" id="h4091666640" class="t"><rect height="40" width="226.1" class="th"></rect><text x="13" y="25" class="tht">olympic_event</text><rect height="235" width="226.1" class="t-bg" y="40"></rect><text x="13" y="61" class="tf pk">id<tspan x="213.1" class="ty">serial</tspan></text><path d="M7,14A2,2 0 0,1 5,12A2,2 0 0,1 7,10A2,2 0 0,1 9,12A2,2 0 0,1 7,14M12.65,10C11.83,7.67 9.61,6 7, 6A6, 6 0 0, 0 1, 12A6, 6 0 0, 0 7, 18C9.61, 18 11.83, 16.33 12.65, 14H17V18H21V14H23V10H12.65Z" class="i pk" transform="translate(164.42421875, 48) scale(0.65)"></path><text x="13" y="86" class="tf">city<tspan x="213.1" class="ty">varchar(50)</tspan></text><text x="13" y="111" class="tf">season<tspan x="213.1" class="ty">varchar(20)</tspan></text><text x="13" y="136" class="tf">year<tspan x="213.1" class="ty">int</tspan></text><text x="13" y="161" class="tf fk">event_id<tspan x="213.1" class="ty">int</tspan></text><text x="13" y="186" class="tf">athlete_name<tspan x="213.1" class="ty">varchar(100)</tspan></text><text x="13" y="211" class="tf">athlete_country_name<tspan x="213.1" class="ty">varchar(32)</tspan></text><text x="13" y="236" class="tf fk">country_ioc<tspan x="213.1" class="ty">varchar(3)</tspan></text><text x="13" y="261" class="tf">medal<tspan x="213.1" class="ty">varchar(10)</tspan></text></svg></g></g><text class="qdbd-link" x="10" y="20">www.quickdatabasediagrams.com</text></svg>